<?xml version="1.0" encoding="utf-8"?>
<!-- Generator: Adobe Illustrator 17.0.0, SVG Export Plug-In . SVG Version: 6.00 Build 0)  -->
<!DOCTYPE svg PUBLIC "-//W3C//DTD SVG 1.1//EN" "http://www.w3.org/Graphics/SVG/1.1/DTD/svg11.dtd">
<svg version="1.1" id="Layer_1" xmlns="http://www.w3.org/2000/svg" xmlns:xlink="http://www.w3.org/1999/xlink" x="0px" y="0px"
	 width="1528.32px" height="374.252px" viewBox="0 0 1528.32 374.252" enable-background="new 0 0 1528.32 374.252"
	 xml:space="preserve">
<path fill="#FFFFFF" d="M188.632,170.511c-25.103,13.552-42.879,33.577-59.057,55.159c-2.606,3.476-4.594,7.488-7.542,10.617
	c-5.298,5.625-12.283,7.122-19.124,3.921c-7.878-3.686-8.242-12.122-5.571-18.16c7.313-16.528,7.992-33.736,8.253-51.181
	c0.077-5.174,0.012-10.349,0.012-15.393c-9.123-2.822-11.703,4.081-15.168,8.209c-21.272,25.345-45.847,47.943-63.773,76.062
	c-5.252,8.239-11.397,13.912-21.262,7.877c-7.948-4.863-7.09-15.408,2.351-24.101c32.191-29.642,59.404-63.719,87.402-97.108
	c1.679-2.002,2.959-4.358,4.741-6.251c6.033-6.41,12.502-13.84,22.205-8.7c7.859,4.164,8.452,12.638,6.778,20.742
	c-3.745,18.134-2.133,36.319-2.376,53.833c9.103,4.936,12.846-1.83,16.382-5.738c17.511-19.352,40.201-33.549,55.031-55.519
	c5.301-7.853,12.486-9.193,20.482-4.857c8.682,4.707,9.148,12.404,5.113,20.184c-8.842,17.053-17.145,34.317-23.472,52.471
	c-3.09,8.866-7.642,17.694-3.089,27.054c14.444,3.848,24.409-8.914,39.549-8.983c-9.84,16.539-24.605,24.451-38.14,32.786
	c-11.936,7.35-24.471-1.261-25.467-15.777c-0.792-11.542,3.09-22.416,6.409-33.212C181.808,186.282,185.479,178.476,188.632,170.511
	z"/>
<path fill="#FFFFFF" d="M493.176,139.227c8.678-5.625,17.26-11.409,26.069-16.822c6.213-3.818,13.401-7.503,19.918-2.196
	c7.194,5.858,6.208,14.576,2.832,22.075c-5.208,11.566-11.232,22.791-17.392,33.893c-5.049,9.098-10.164,18.086-11.539,28.599
	c-1.686,12.889,3.016,18.408,15.831,16.639c9.809-1.354,19.341-4.714,29.615-5.624c-8.529,11.276-20.163,17.157-32.794,21.436
	c-16.918,5.731-40.665-10.541-33.727-32.588c3.64-11.566,8.869-22.082,14.567-32.557c4.49-8.254,8.937-16.532,15.727-29.102
	c-21.759,8.634-34.531,22.177-47.898,34.055c-15.516,13.787-27.625,30.758-34.75,50.654c-2.974,8.304-6.793,14.964-17.113,11.002
	c-8.79-3.375-10.632-10.776-3.728-21.929c19.278-31.142,36.983-63.113,53.018-96.021c3.146-6.457,5.588-15,14.485-13.008
	c9.374,2.098,10.91,10.412,9.277,19.124C492.561,130.551,489.693,134.273,493.176,139.227z"/>
<path fill="#FFFFFF" d="M1209.873,141.812c8.678-5.625,17.26-11.409,26.069-16.822c6.213-3.818,13.401-7.503,19.918-2.196
	c7.194,5.858,6.208,14.576,2.832,22.075c-5.208,11.566-11.232,22.791-17.392,33.893c-5.049,9.098-10.164,18.087-11.539,28.599
	c-1.686,12.889,3.016,18.408,15.831,16.639c9.809-1.354,19.341-4.714,29.615-5.624c-8.529,11.276-20.163,17.157-32.794,21.436
	c-16.918,5.731-40.665-10.541-33.727-32.588c3.64-11.566,8.869-22.082,14.567-32.557c4.49-8.254,8.937-16.532,15.727-29.102
	c-21.759,8.634-34.531,22.177-47.898,34.055c-15.516,13.787-27.625,30.758-34.75,50.654c-2.974,8.304-6.793,14.964-17.113,11.002
	c-8.79-3.375-10.632-10.776-3.728-21.929c19.278-31.142,36.984-63.113,53.018-96.021c3.146-6.457,5.588-15,14.485-13.008
	c9.374,2.098,10.91,10.412,9.277,19.124C1209.258,133.136,1206.39,136.858,1209.873,141.812z"/>
<path fill="#FFFFFF" d="M1007.051,198.591c-12.758,25.393-29.68,39.748-52.7,45.106c-21.016,4.892-34.881-12.117-27.366-32.758
	c7.855-21.576,18.745-42.074,22.972-66.333c-8.906-2.593-12.948,4.32-17.392,8.543c-13.197,12.542-23.387,27.498-32.606,43.131
	c-6.118,10.375-11.713,21.14-18.721,30.882c-5.681,7.896-12.713,18.209-24.268,10.688c-9.641-6.276-5.174-15.958-1.043-24.342
	c25.406-51.559,40.518-106.803,57.559-161.343c3.279-10.494,5.861-21.268,7.866-32.079c1.898-10.234,3.294-22.623,16.791-19.63
	c14.29,3.169,10.083,15.52,5.615,24.541c-10.333,20.862-15.632,43.453-23.579,65.118c-7.203,19.636-12.96,39.801-21.645,66.871
	c17.874-16.338,28.522-30.61,43.963-39.028c7.133-3.889,13.836-9.383,22.228-4.885c10.1,5.415,7.873,15.418,6.809,24.063
	c-2.852,23.161-12.291,44.426-20.244,66.094c-2.002,5.454-6.422,11.21-1.058,16.575c5.24,5.24,11.249,0.855,16.947-0.304
	C980.864,216.713,989.075,203.054,1007.051,198.591z"/>
<path fill="#FFFFFF" d="M712.162,213.297c-32.004,43.413-50.491,42.318-69.494,0.926c-10.66,1.929-18.064,10.788-27.662,15.175
	c-11.742,5.366-23.113,10.077-34.525,0.743c-12.053-9.858-17.068-23.622-15.152-39.551c3.027-25.165,18.558-43.837,31.304-63.586
	c4.93-7.637,14.713-6.677,20.561,0.627c5.831,7.283,1.567,14.455-4.691,18.792c-13.299,9.217-20.631,22.739-24.698,38.238
	c-2.287,8.718-4.73,19.32,4.059,25.747c8.198,5.996,17.105,2.027,24.724-2.73c18.415-11.498,33.734-26.277,42.927-47.548
	c5.476-12.673,11.46-25.184,21.46-34.803c4.112-3.955,8.553-7.37,13.766-3.098c4.834,3.96,5.234,10.003,1.694,14.886
	c-9.26,12.771-13.552,28.053-19.861,42.316c-1.851,4.185-4.421,8.129-5.599,12.509c-2.644,9.836-6.887,21.451-0.162,29.535
	c8.072,9.702,17.64,0.833,26.28-2.896C700.156,217.254,703.381,216.349,712.162,213.297z"/>
<path fill="#FFFFFF" d="M1309.268,219.363c14.701-3.76,18.022-20.169,29.896-26.96c-0.566,15.873-20.935,45.364-34.55,50.201
	c-8.493,3.018-16.826-1.242-19.422-10.647c-2.073-7.514-0.879-15.105,1.155-22.613c5.181-19.121,13.664-37.278,15.139-57.528
	c0.661-9.073,8.857-13.321,16.609-10.219c9.431,3.774,6.697,11.241,3.354,17.141c-5.333,9.41-9.187,19.347-12.581,29.468
	C1304.839,200.22,1305.188,203.9,1309.268,219.363z"/>
<g>
	<path fill="#FFFFFF" d="M286.913,241.01c-17.927,1.806-31.346-8.553-40.682-23.797c-8.959-14.626-6.004-29.991,3.271-43.79
		c14.385-21.402,33.645-37.631,56.467-49.273c8.583-4.379,18.211-7.548,28.357-4.49c8.371,2.523,14.924,6.944,15.244,16.668
		c0.133,4.034-0.557,8.142-4.657,10.543c-3.471,2.032-6.863,0.641-8.784-1.752c-8.994-11.202-19.256-6.466-28.701-1.966
		c-17.86,8.507-33.348,19.911-42.846,38.222c-8.561,16.507-4.717,30.493,12.182,37.505c11.331,4.702,23.256,7.718,35.706,3.431
		c4.612-1.588,9.3-3.079,14.065-4.076c4.205-0.88,8.566-0.313,9.444,4.897c0.581,3.452-1.93,5.687-5.073,7.315
		C325.159,233.425,295.941,240.915,286.913,241.01z"/>
	<path fill="#FFFFFF" d="M409.445,219.596c-16.693,10.529-34.171,19.094-53.239,11.863c-14.635-5.55-22.643-22.809-20.56-40.5
		c0.94-7.977,2.963-15.825,4.949-23.569c1.468-5.726,4.375-10.473,10.317-9.362c6.351,1.188,9.884,5.787,8.942,13.591
		c-0.77,6.378-2.68,12.578-3.311,18.963c-1.644,16.627,1.733,21.966,15.704,24.934C384.301,218.076,396.477,219.125,409.445,219.596
		z"/>
</g>
<g>
	<path fill="#FFFFFF" d="M1391.708,242.256c-17.927,1.806-31.346-8.553-40.682-23.797c-8.958-14.626-6.004-29.991,3.271-43.79
		c14.385-21.402,33.645-37.631,56.468-49.273c8.583-4.379,18.211-7.548,28.357-4.49c8.371,2.523,14.924,6.944,15.244,16.668
		c0.133,4.034-0.557,8.142-4.657,10.543c-3.471,2.032-6.863,0.641-8.784-1.752c-8.994-11.202-19.256-6.466-28.701-1.966
		c-17.86,8.507-33.348,19.911-42.846,38.222c-8.561,16.507-4.717,30.493,12.182,37.505c11.331,4.702,23.256,7.718,35.706,3.431
		c4.612-1.588,9.3-3.079,14.065-4.076c4.205-0.88,8.566-0.313,9.443,4.897c0.58,3.452-1.93,5.687-5.073,7.315
		C1429.953,234.671,1400.736,242.161,1391.708,242.256z"/>
	<path fill="#FFFFFF" d="M1528.319,217.841c-19.657,10.529-40.238,19.094-62.692,11.863c-17.234-5.55-26.663-22.809-24.21-40.5
		c1.107-7.977,3.489-15.824,5.828-23.569c1.729-5.726,5.152-10.473,12.148-9.362c7.479,1.188,11.638,5.787,10.529,13.591
		c-0.907,6.378-3.156,12.578-3.899,18.963c-1.936,16.627,2.04,21.966,18.493,24.934
		C1498.711,216.322,1513.049,217.371,1528.319,217.841z"/>
</g>
<path fill="#FFFFFF" d="M1330.338,83.513c6.01-0.212,14.898,8.491,14.913,15.041c0.012,5.321-3.021,8.54-8.392,8.534
	c-7.837-0.01-15.703-7.494-15.028-14.165C1322.341,87.884,1325.466,84.812,1330.338,83.513z"/>
<path fill="#FFFFFF" d="M837.27,215.204c0.786-25.132-7.37-47.247-23.062-67.143c-6.814-8.64-16.741-15.183-17.449-28.03
	c-0.316-5.727-7.874-10.951-12.824-5.435c-8.448,9.415-19.645,6.658-29.481,9.579c-6.333,1.88-13.114,2.983-18.85,5.951
	c-6.909,3.576-7.934,10.352-4.189,16.64c2.966,4.979,8.308,4.709,13.143,2.064c5.769-3.155,11.403-6.446,21.639-3.858
	c-13.469,22.619-20.133,47.533-36.426,68.043c-2.431,3.06-7.33,4.524-7.762,8.928c-2.735,27.873-19.916,50.546-29.281,76.032
	c-8.054,21.92-17.568,43.338-25.996,65.136c-1.852,4.789-0.621,9.863,5.891,11.003c5.001,0.875,7.496-2.609,9.02-6.492
	c1.468-3.742,2.336-7.699,3.649-11.503c11.841-34.322,26.156-67.639,41.384-100.715c7.525-16.343,17.883-21.236,34.772-19.202
	c15.685,1.889,31.483,2.908,47.232,4.3C830.812,242.461,836.581,237.234,837.27,215.204z M801.41,223.64
	c-14.377,1.268-28.229-1.151-42.18-3.866c-8.228-1.601-12.56-5.579-8.796-13.267c9.869-20.157,20.143-40.169,34.2-58.985
	c22.254,13.768,31.148,33.492,35.676,55.05C823.349,217.041,817.303,222.239,801.41,223.64z"/>
<path fill="#FFFFFF" d="M1061.458,114.015c-12.852,4.974-23.511,13.466-35.359,20.024c-19.588,10.841-24.869,22.321-20.234,43.67
	c4.896,22.554,17.576,40.226,35.463,54.308c17.626,13.876,38.661,13.906,55.859-1.095c20.82-18.161,30.317-42.282,33.151-64.644
	C1130.563,121.779,1098.371,99.729,1061.458,114.015z M1068.457,219.554c-20.496-0.082-41.016-21.144-40.31-41.377
	c0.904-25.949,27.853-50.534,54.852-50.042c18.58,0.339,32.243,15.577,31.89,35.566
	C1114.431,189.702,1089.543,219.638,1068.457,219.554z"/>
</svg>
